HIERARCHY
ROOT Hips
{
  OFFSET -4.35178 90.3298 111.633
  CHANNELS 6 Xposition Yposition Zposition Zrotation Xrotation Yrotation
  JOINT LeftUpLeg
  {
    OFFSET 0.103456 1.85784 10.5485
    CHANNELS 6 Xposition Yposition Zposition Zrotation Xrotation Yrotation
    JOINT LeftLeg
    {
      OFFSET 43.5 -4.2e-05 0
      CHANNELS 6 Xposition Yposition Zposition Zrotation Xrotation Yrotation
      JOINT LeftFoot
      {
        OFFSET 42.3722 1.9e-05 0
        CHANNELS 6 Xposition Yposition Zposition Zrotation Xrotation Yrotation
        JOINT LeftToe
        {
          OFFSET 17.3 0 0
          CHANNELS 6 Xposition Yposition Zposition Zrotation Xrotation Yrotation
          End Site
          {
            OFFSET 0 0 0
          }
        }
      }
    }
  }
  JOINT RightUpLeg
  {
    OFFSET 0.103456 1.85782 -10.5485
    CHANNELS 6 Xposition Yposition Zposition Zrotation Xrotation Yrotation
    JOINT RightLeg
    {
      OFFSET 43.5 -2.7e-05 0
      CHANNELS 6 Xposition Yposition Zposition Zrotation Xrotation Yrotation
      JOINT RightFoot
      {
        OFFSET 42.3723 0 0
        CHANNELS 6 Xposition Yposition Zposition Zrotation Xrotation Yrotation
        JOINT RightToe
        {
          OFFSET 17.3 0 1.7e-05
          CHANNELS 6 Xposition Yposition Zposition Zrotation Xrotation Yrotation
          End Site
          {
            OFFSET 0 0 0
          }
        }
      }
    }
  }
  JOINT Spine
  {
    OFFSET 6.90197 -2.60373 0
    CHANNELS 6 Xposition Yposition Zposition Zrotation Xrotation Yrotation
    JOINT Spine1
    {
      OFFSET 12.5881 0 0
      CHANNELS 6 Xposition Yposition Zposition Zrotation Xrotation Yrotation
      JOINT Spine2
      {
        OFFSET 12.3432 -1.8e-05 0
        CHANNELS 6 Xposition Yposition Zposition Zrotation Xrotation Yrotation
        JOINT Neck
        {
          OFFSET 25.8329 2.3e-05 0
          CHANNELS 6 Xposition Yposition Zposition Zrotation Xrotation Yrotation
          JOINT Head
          {
            OFFSET 11.7666 0 0
            CHANNELS 6 Xposition Yposition Zposition Zrotation Xrotation Yrotation
            End Site
            {
              OFFSET 0 0 0
            }
          }
        }
        JOINT LeftShoulder
        {
          OFFSET 19.7459 -1.48035 6.0001
          CHANNELS 6 Xposition Yposition Zposition Zrotation Xrotation Yrotation
          JOINT LeftArm
          {
            OFFSET 11.2841 1.8e-05 -2e-05
            CHANNELS 6 Xposition Yposition Zposition Zrotation Xrotation Yrotation
            JOINT LeftForeArm
            {
              OFFSET 33 -1.3e-05 1.9e-05
              CHANNELS 6 Xposition Yposition Zposition Zrotation Xrotation Yrotation
              JOINT LeftHand
              {
                OFFSET 25.2 3.2e-05 1.1e-05
                CHANNELS 6 Xposition Yposition Zposition Zrotation Xrotation Yrotation
                End Site
                {
                  OFFSET 0 0 0
                }
              }
            }
          }
        }
        JOINT RightShoulder
        {
          OFFSET 19.7461 -1.48036 -6.00008
          CHANNELS 6 Xposition Yposition Zposition Zrotation Xrotation Yrotation
          JOINT RightArm
          {
            OFFSET 11.2841 0 0
            CHANNELS 6 Xposition Yposition Zposition Zrotation Xrotation Yrotation
            JOINT RightForeArm
            {
              OFFSET 33.0001 1.6e-05 0
              CHANNELS 6 Xposition Yposition Zposition Zrotation Xrotation Yrotation
              JOINT RightHand
              {
                OFFSET 25.1998 0.000123 0.000432
                CHANNELS 6 Xposition Yposition Zposition Zrotation Xrotation Yrotation
                End Site
                {
                  OFFSET 0 0 0
                }
              }
            }
          }
        }
      }
    }
  }
}
MOTION
Frames:	7
Frame Time:	0.0333333
-97.8046 87.8055 -188.486 -91.3033 67.476 -179.832 0.103456 1.85784 10.5485 0.690543 0.612996 -179.471 43.5 -4.2e-05 1e-05 -22.1458 -9.2866 -7.34591 42.3722 1.9e-05 0 85.4207 -9.23919 6.81416 17.3 0 3e-06 21.4546 -1e-06 0.003093 0.103456 1.85782 -10.5485 9.1692 3.69013 177.801 43.5 -2.7e-05 4e-06 -17.272 15.4559 5.71942 42.3723 2.84217e-14 1e-05 86.5311 34.1391 -18.0144 17.3 -6e-06 1.7e-05 21.4546 -1.9e-05 -0.003116 6.90197 -2.60373 -3e-06 12.4822 -0.503106 0.942565 12.5881 1e-05 8e-06 14.9594 -0.601051 2.01452 12.3432 -1.8e-05 -5e-06 14.6389 -0.251163 2.06147 25.8329 2.3e-05 7e-06 7.35202 -2.02825 -6.89245 11.7666 -8e-06 -6e-06 -39.6698 -6.92238 9.10018 19.7459 -1.48035 6.0001 -158.949 35.1957 -93.3827 11.2841 1.8e-05 -2e-05 13.7768 -25.7598 76.2467 33 -1.3e-05 1.9e-05 -106.776 -11.7525 -6.88904 25.2 3.2e-05 1.1e-05 -18.8356 28.8133 0.922997 19.7461 -1.48036 -6.00008 -165.153 -24.399 78.8473 11.2841 -2.84217e-14 -1e-06 -14.2388 13.9413 -38.3291 33.0001 1.6e-05 -1e-06 -78.9992 -14.5441 22.7673 25.1998 0.000123 0.000432 -6.14627 -30.8944 25.2818 
-97.5124 87.6962 -188.438 -91.0905 66.2901 -179.874 0.103456 1.85784 10.5485 3.66047 0.082077 179.965 43.5 -4.2e-05 1e-05 -16.5925 -10.029 -6.76202 42.3722 1.9e-05 -1.42109e-14 85.9479 -9.22268 5.29831 17.3 0 3e-06 21.4546 -1e-06 0.003093 0.103456 1.85782 -10.5485 5.29642 2.75148 177.261 43.5 -2.7e-05 4e-06 -25.6972 14.6143 6.97286 42.3723 0 1e-05 87.3832 34.4895 -18.6112 17.3 -6e-06 1.7e-05 21.4546 -1.9e-05 -0.003116 6.90197 -2.60373 -3e-06 12.4373 -0.412285 0.848686 12.5881 1e-05 8e-06 14.8664 -0.444404 1.80707 12.3432 -1.8e-05 -5e-06 14.5447 -0.109043 1.84485 25.8329 2.3e-05 7e-06 7.31331 -1.96749 -6.79203 11.7666 -8e-06 -6e-06 -38.9888 -7.13931 9.46974 19.7459 -1.48035 6.0001 -159.056 34.4224 -92.6819 11.2841 1.8e-05 -2e-05 14.9376 -25.307 76.3056 33 -1.3e-05 1.9e-05 -106.722 -11.6579 -7.02388 25.2 3.2e-05 1.1e-05 -19.7937 29.3838 0.681951 19.7461 -1.48036 -6.00008 -165.633 -23.8407 78.5003 11.2841 5.68434e-14 -1e-06 -14.6752 13.4465 -37.9421 33.0001 1.6e-05 -1e-06 -79.1405 -15.5124 22.8681 25.1998 0.000123 0.000432 -6.43914 -31.3662 25.5048 
-97.0648 87.5788 -188.292 -90.4964 65.5525 179.941 0.103456 1.85784 10.5485 5.19397 -0.272587 178.996 43.5 -4.2e-05 1e-05 -14.2408 -10.5702 -6.0623 42.3722 1.9e-05 1.42109e-14 85.9187 -8.49533 5.12006 17.3 -1.42109e-14 3e-06 21.4546 -1e-06 0.003093 0.103456 1.85782 -10.5485 0.0619671 3.04768 175.26 43.5 -2.7e-05 4e-06 -37.2363 12.4895 10.3172 42.3723 2.84217e-14 1e-05 86.366 33.4561 -19.7344 17.3 -6e-06 1.7e-05 21.4546 -1.9e-05 -0.003116 6.90197 -2.60373 -3e-06 12.3767 -0.36317 0.652645 12.5881 1e-05 8e-06 14.7445 -0.394209 1.40654 12.3432 -1.8e-05 -5e-06 14.4243 -0.0855103 1.44212 25.8329 2.3e-05 7e-06 7.52813 -1.76237 -6.85267 11.7666 -8e-06 -6e-06 -38.5101 -7.34914 10.0136 19.7459 -1.48035 6.0001 -159.62 33.5816 -91.3426 11.2841 1.8e-05 -2e-05 16.4078 -25.184 76.3074 33 -1.3e-05 1.9e-05 -106.387 -10.3716 -6.7909 25.2 3.2e-05 1.1e-05 -19.3296 30.3168 0.212594 19.7461 -1.48036 -6.00008 -166.316 -23.4864 77.3798 11.2841 -2.84217e-14 -1e-06 -14.9671 12.7418 -37.8418 33.0001 1.6e-05 -1e-06 -78.6426 -16.4947 23.0276 25.1998 0.000123 0.000432 -7.17378 -31.488 25.377 
-96.4677 87.4748 -188.17 -89.443 65.3262 179.323 0.103456 1.85784 10.5485 6.61843 -0.560204 178.232 43.5 -4.2e-05 1e-05 -12.5454 -10.7493 -5.73561 42.3722 1.9e-05 0 86.1155 -8.94749 4.68153 17.3 -1.42109e-14 3e-06 21.4546 -1e-06 0.003093 0.103456 1.85782 -10.5485 -6.18025 3.28244 175.034 43.5 -2.7e-05 4e-06 -48.8123 11.1055 8.98779 42.3723 0 1e-05 82.4822 29.3372 -20.0691 17.3 -6e-06 1.7e-05 21.4546 -1.9e-05 -0.003116 6.90197 -2.60373 -3e-06 12.548 -0.303015 0.463051 12.5881 1e-05 8e-06 15.0859 -0.312608 1.01699 12.3432 -1.8e-05 -5e-06 14.7664 -0.0229718 1.0479 25.8329 2.3e-05 7e-06 7.50226 -1.69227 -6.80212 11.7666 -8e-06 -6e-06 -38.6624 -7.66525 10.3078 19.7459 -1.48035 6.0001 -160.001 33.1859 -90.6613 11.2841 1.8e-05 -2e-05 18.4393 -25.8978 76.9666 33 -1.3e-05 1.9e-05 -106.369 -9.00408 -6.47929 25.2 3.2e-05 1.1e-05 -18.8434 30.9401 -0.0959324 19.7461 -1.48036 -6.00008 -166.251 -23.4749 76.9589 11.2841 0 -1e-06 -14.4698 13.5071 -38.2924 33.0001 1.6e-05 -1e-06 -78.7029 -17.0547 23.1316 25.1998 0.000123 0.000432 -7.12883 -31.3071 25.1472 
-95.9807 87.4163 -188.022 -88.252 65.1061 178.494 0.103456 1.85784 10.5485 8.69906 0.00318697 177.913 43.5 -4.2e-05 1e-05 -10.3323 -10.9785 -5.90408 42.3722 1.9e-05 0 85.999 -9.20675 3.73727 17.3 0 3e-06 21.4546 -1e-06 0.003093 0.103456 1.85782 -10.5485 -11.9836 2.9888 175.669 43.5 -2.7e-05 4e-06 -57.4017 11.0527 6.28311 42.3723 0 1e-05 82.7704 23.3426 -19.6289 17.3 -6e-06 1.7e-05 21.4546 -1.9e-05 -0.003116 6.90197 -2.60373 -3e-06 12.8916 -0.279572 0.295797 12.5881 1e-05 8e-06 15.7733 -0.294987 0.680724 12.3432 -1.8e-05 -5e-06 15.455 -0.0157054 0.71035 25.8329 2.3e-05 7e-06 7.31861 -1.68144 -6.7106 11.7666 -8e-06 -6e-06 -39.3439 -7.99842 10.4628 19.7459 -1.48035 6.0001 -160.181 33.1155 -90.6722 11.2841 1.8e-05 -2e-05 20.7571 -27.0721 78.0159 33 -1.3e-05 1.9e-05 -106.887 -8.49626 -6.30377 25.2 3.2e-05 1.1e-05 -18.6393 30.6808 0.0580993 19.7461 -1.48036 -6.00008 -165.781 -23.734 77.0767 11.2841 0 -1e-06 -13.6227 15.0401 -39.0086 33.0001 1.6e-05 -1e-06 -79.2694 -16.9662 23.122 25.1998 0.000123 0.000432 -7.02674 -31.1741 25.0917 
-95.6906 87.4055 -187.167 -87.6231 64.825 177.873 0.103456 1.85784 10.5485 11.1598 0.206568 178.246 43.5 -4.2e-05 1e-05 -7.27617 -11.2032 -6.07571 42.3722 1.9e-05 1.42109e-14 85.2026 -9.7366 2.77649 17.3 0 3e-06 21.4546 -1e-06 0.003093 0.103456 1.85782 -10.5485 -16.4751 2.32302 177.149 43.5 -2.7e-05 4e-06 -61.2838 11.2764 4.41167 42.3723 0 1e-05 85.1017 21.5052 -18.8175 17.3 -6e-06 1.7e-05 21.4546 -1.9e-05 -0.003116 6.90197 -2.60373 -3e-06 13.0393 -0.261733 0.132687 12.5881 1e-05 8e-06 16.069 -0.294516 0.353444 12.3432 -1.8e-05 -5e-06 15.7521 -0.0309961 0.383289 25.8329 2.3e-05 7e-06 7.37619 -1.43113 -6.81756 11.7666 -8e-06 -6e-06 -39.3854 -8.07193 10.869 19.7459 -1.48035 6.0001 -160.541 32.7442 -90.3559 11.2841 1.8e-05 -2e-05 22.1778 -27.6142 78.2685 33 -1.3e-05 1.9e-05 -107.19 -7.68986 -6.04664 25.2 3.2e-05 1.1e-05 -18.3062 30.9922 -0.181315 19.7461 -1.48036 -6.00008 -166.075 -23.5906 76.3313 11.2841 0 -1e-06 -13.4449 14.8491 -39.7327 33.0001 1.6e-05 -1e-06 -79.6863 -16.2375 22.971 25.1998 0.000123 0.000432 -7.32258 -31.1668 25.1361 
-94.9514 87.3987 -186.326 -87.4626 64.5966 177.794 0.103456 1.85784 10.5485 12.2054 0.16379 177.954 43.5 -4.2e-05 1e-05 -6.49933 -11.3466 -5.84655 42.3722 1.9e-05 -1.42109e-14 85.589 -10.3192 2.09201 17.3 1.42109e-14 3e-06 21.4546 -1e-06 0.003093 0.103456 1.85782 -10.5485 -20.1779 1.70632 177.99 43.5 -2.7e-05 4e-06 -61.4788 10.9424 3.81937 42.3723 0 1e-05 86.4663 21.5576 -18.5204 17.3 -6e-06 1.7e-05 21.4546 -1.9e-05 -0.003116 6.90197 -2.60373 -3e-06 13.1957 -0.319192 0.0282982 12.5881 1e-05 8e-06 16.3834 -0.429716 0.160934 12.3432 -1.8e-05 -5e-06 16.0693 -0.173051 0.199071 25.8329 2.3e-05 7e-06 7.39687 -1.34101 -6.79477 11.7666 -8e-06 -6e-06 -39.2428 -8.10484 10.9809 19.7459 -1.48035 6.0001 -160.762 32.6812 -90.3496 11.2841 1.8e-05 -2e-05 23.8433 -28.2658 79.2174 33 -1.3e-05 1.9e-05 -107.286 -7.96807 -5.99813 25.2 3.2e-05 1.1e-05 -18.0861 30.1863 0.239693 19.7461 -1.48036 -6.00008 -166.045 -23.3909 76.3593 11.2841 0 -1e-06 -13.5247 14.5653 -40.2593 33.0001 1.6e-05 -1e-06 -79.9036 -16.1151 22.8226 25.1998 0.000123 0.000432 -7.67111 -31.603 25.376 
